<svg width="160" height="41" viewBox="0 0 160 41" fill="none" xmlns="http://www.w3.org/2000/svg">
<path d="M58.856 30V15.624H53.264V13.08H67.544V15.624H61.952V30H58.856ZM67.5924 30V20.976C67.5924 20.464 67.5764 19.944 67.5444 19.416C67.5284 18.888 67.4884 18.376 67.4244 17.88H70.3284L70.6644 21.192H70.1844C70.3444 20.392 70.6084 19.728 70.9764 19.2C71.3604 18.672 71.8244 18.28 72.3684 18.024C72.9124 17.768 73.5044 17.64 74.1444 17.64C74.4324 17.64 74.6644 17.656 74.8404 17.688C75.0164 17.704 75.1924 17.744 75.3684 17.808L75.3444 20.448C75.0404 20.32 74.7764 20.24 74.5524 20.208C74.3444 20.176 74.0804 20.16 73.7604 20.16C73.0724 20.16 72.4884 20.304 72.0084 20.592C71.5444 20.88 71.1924 21.28 70.9524 21.792C70.7284 22.304 70.6164 22.888 70.6164 23.544V30H67.5924ZM81.6011 30.24C80.5451 30.24 79.6171 29.992 78.8171 29.496C78.0171 28.984 77.3931 28.256 76.9451 27.312C76.4971 26.368 76.2731 25.24 76.2731 23.928C76.2731 22.616 76.4971 21.496 76.9451 20.568C77.3931 19.624 78.0171 18.904 78.8171 18.408C79.6171 17.896 80.5451 17.64 81.6011 17.64C82.6251 17.64 83.5211 17.896 84.2891 18.408C85.0731 18.904 85.5931 19.576 85.8491 20.424H85.5851L85.8491 17.88H88.7291C88.6811 18.376 88.6331 18.88 88.5851 19.392C88.5531 19.904 88.5371 20.408 88.5371 20.904V30H85.5611L85.5371 27.504H85.8251C85.5691 28.336 85.0491 29 84.2651 29.496C83.4811 29.992 82.5931 30.24 81.6011 30.24ZM82.4411 27.936C83.3851 27.936 84.1451 27.608 84.7211 26.952C85.2971 26.28 85.5851 25.272 85.5851 23.928C85.5851 22.584 85.2971 21.584 84.7211 20.928C84.1451 20.272 83.3851 19.944 82.4411 19.944C81.4971 19.944 80.7371 20.272 80.1611 20.928C79.5851 21.584 79.2971 22.584 79.2971 23.928C79.2971 25.272 79.5771 26.28 80.1371 26.952C80.7131 27.608 81.4811 27.936 82.4411 27.936ZM92.6199 30V20.136H90.2919V17.88H93.4599L92.6199 18.648V16.8C92.6199 15.296 93.0039 14.16 93.7719 13.392C94.5559 12.624 95.6999 12.24 97.2039 12.24C97.5559 12.24 97.9239 12.264 98.3079 12.312C98.7079 12.36 99.0519 12.448 99.3399 12.576V14.928C99.1319 14.848 98.8839 14.784 98.5959 14.736C98.3079 14.688 98.0279 14.664 97.7559 14.664C97.3399 14.664 96.9639 14.744 96.6279 14.904C96.3079 15.064 96.0519 15.312 95.8599 15.648C95.6839 15.968 95.5959 16.4 95.5959 16.944V18.408L95.1639 17.88H98.7879V20.136H95.6199V30H92.6199ZM105.203 30.24C104.147 30.24 103.219 29.992 102.419 29.496C101.619 28.984 100.995 28.256 100.547 27.312C100.099 26.368 99.8746 25.24 99.8746 23.928C99.8746 22.616 100.099 21.496 100.547 20.568C100.995 19.624 101.619 18.904 102.419 18.408C103.219 17.896 104.147 17.64 105.203 17.64C106.227 17.64 107.123 17.896 107.891 18.408C108.675 18.904 109.195 19.576 109.451 20.424H109.187L109.451 17.88H112.331C112.283 18.376 112.235 18.88 112.187 19.392C112.155 19.904 112.139 20.408 112.139 20.904V30H109.163L109.139 27.504H109.427C109.171 28.336 108.651 29 107.867 29.496C107.083 29.992 106.195 30.24 105.203 30.24ZM106.043 27.936C106.987 27.936 107.747 27.608 108.323 26.952C108.899 26.28 109.187 25.272 109.187 23.928C109.187 22.584 108.899 21.584 108.323 20.928C107.747 20.272 106.987 19.944 106.043 19.944C105.099 19.944 104.339 20.272 103.763 20.928C103.187 21.584 102.899 22.584 102.899 23.928C102.899 25.272 103.179 26.28 103.739 26.952C104.315 27.608 105.083 27.936 106.043 27.936ZM115.405 30V12.336H118.405V30H115.405ZM127.279 35.376C126.159 35.376 125.143 35.256 124.231 35.016C123.335 34.776 122.535 34.408 121.831 33.912L122.479 31.752C122.943 32.056 123.423 32.304 123.919 32.496C124.415 32.688 124.927 32.832 125.455 32.928C125.983 33.024 126.519 33.072 127.063 33.072C128.183 33.072 129.015 32.792 129.559 32.232C130.119 31.688 130.399 30.904 130.399 29.88V26.976H130.639C130.383 27.808 129.863 28.472 129.079 28.968C128.311 29.464 127.423 29.712 126.415 29.712C125.327 29.712 124.375 29.472 123.559 28.992C122.759 28.496 122.135 27.792 121.687 26.88C121.239 25.968 121.015 24.896 121.015 23.664C121.015 22.432 121.239 21.368 121.687 20.472C122.135 19.56 122.759 18.864 123.559 18.384C124.375 17.888 125.327 17.64 126.415 17.64C127.439 17.64 128.327 17.888 129.079 18.384C129.847 18.864 130.359 19.52 130.615 20.352L130.399 20.208L130.639 17.88H133.543C133.479 18.376 133.431 18.88 133.399 19.392C133.367 19.904 133.351 20.408 133.351 20.904V29.52C133.351 31.424 132.831 32.872 131.791 33.864C130.767 34.872 129.263 35.376 127.279 35.376ZM127.231 27.408C128.191 27.408 128.951 27.088 129.511 26.448C130.087 25.792 130.375 24.864 130.375 23.664C130.375 22.464 130.087 21.544 129.511 20.904C128.951 20.264 128.191 19.944 127.231 19.944C126.255 19.944 125.479 20.264 124.903 20.904C124.327 21.544 124.039 22.464 124.039 23.664C124.039 24.864 124.327 25.792 124.903 26.448C125.479 27.088 126.255 27.408 127.231 27.408ZM141.273 30.24C140.217 30.24 139.289 29.992 138.489 29.496C137.689 28.984 137.065 28.256 136.617 27.312C136.169 26.368 135.945 25.24 135.945 23.928C135.945 22.616 136.169 21.496 136.617 20.568C137.065 19.624 137.689 18.904 138.489 18.408C139.289 17.896 140.217 17.64 141.273 17.64C142.297 17.64 143.193 17.896 143.961 18.408C144.745 18.904 145.265 19.576 145.521 20.424H145.257L145.521 17.88H148.401C148.353 18.376 148.305 18.88 148.257 19.392C148.225 19.904 148.209 20.408 148.209 20.904V30H145.233L145.209 27.504H145.497C145.241 28.336 144.721 29 143.937 29.496C143.153 29.992 142.265 30.24 141.273 30.24ZM142.113 27.936C143.057 27.936 143.817 27.608 144.393 26.952C144.969 26.28 145.257 25.272 145.257 23.928C145.257 22.584 144.969 21.584 144.393 20.928C143.817 20.272 143.057 19.944 142.113 19.944C141.169 19.944 140.409 20.272 139.833 20.928C139.257 21.584 138.969 22.584 138.969 23.928C138.969 25.272 139.249 26.28 139.809 26.952C140.385 27.608 141.153 27.936 142.113 27.936ZM151.452 30V20.976C151.452 20.464 151.436 19.944 151.404 19.416C151.388 18.888 151.348 18.376 151.284 17.88H154.188L154.524 21.192H154.044C154.204 20.392 154.468 19.728 154.836 19.2C155.22 18.672 155.684 18.28 156.228 18.024C156.772 17.768 157.364 17.64 158.004 17.64C158.292 17.64 158.524 17.656 158.7 17.688C158.876 17.704 159.052 17.744 159.228 17.808L159.204 20.448C158.9 20.32 158.636 20.24 158.412 20.208C158.204 20.176 157.94 20.16 157.62 20.16C156.932 20.16 156.348 20.304 155.868 20.592C155.404 20.88 155.052 21.28 154.812 21.792C154.588 22.304 154.476 22.888 154.476 23.544V30H151.452Z" fill="#233348"/>
<circle cx="20.5" cy="20.5" r="20.5" fill="#458FF6"/>
<path d="M19.344 15.244H13.312V12.488H28.782V15.244H22.724V31H19.344V15.244Z" fill="white"/>
</svg>
